<svg width="27" height="29" viewBox="0 0 27 29" fill="none" xmlns="http://www.w3.org/2000/svg">
<mask id="path-1-inside-1_64_1296" fill="white">
<path fill-rule="evenodd" clip-rule="evenodd" d="M0 8H6.5H13V15H6.5V22H13V29H6.5H0V22V15V8Z"/>
</mask>
<path d="M0 8V7H-1V8H0ZM13 8H14V7H13V8ZM13 15V16H14V15H13ZM6.5 15V14H5.5V15H6.5ZM6.5 22H5.5V23H6.5V22ZM13 22H14V21H13V22ZM13 29V30H14V29H13ZM0 29H-1V30H0V29ZM6.5 7H0V9H6.5V7ZM13 7H6.5V9H13V7ZM14 15V8H12V15H14ZM6.5 16H13V14H6.5V16ZM7.5 22V15H5.5V22H7.5ZM6.5 23H13V21H6.5V23ZM12 22V29H14V22H12ZM13 28H6.5V30H13V28ZM0 30H6.5V28H0V30ZM-1 22V29H1V22H-1ZM-1 15V22H1V15H-1ZM-1 8V15H1V8H-1Z" fill="#E5C07A" mask="url(#path-1-inside-1_64_1296)"/>
<mask id="path-3-outside-2_64_1296" maskUnits="userSpaceOnUse" x="12" y="0" width="15" height="23" fill="black">
<rect fill="white" x="12" width="15" height="23"/>
<path fill-rule="evenodd" clip-rule="evenodd" d="M13 1H19.5H26V8V15V22H19.5H13V15H19.5V8H13V1Z"/>
</mask>
<path d="M13 1V0H12V1H13ZM26 1H27V0H26V1ZM26 22V23H27V22H26ZM13 22H12V23H13V22ZM13 15V14H12V15H13ZM19.5 15V16H20.5V15H19.5ZM19.5 8H20.5V7H19.5V8ZM13 8H12V9H13V8ZM19.5 0H13V2H19.5V0ZM26 0H19.5V2H26V0ZM27 8V1H25V8H27ZM27 15V8H25V15H27ZM27 22V15H25V22H27ZM19.5 23H26V21H19.5V23ZM19.5 21H13V23H19.5V21ZM14 22V15H12V22H14ZM13 16H19.5V14H13V16ZM18.5 8V15H20.5V8H18.5ZM13 9H19.5V7H13V9ZM12 1V8H14V1H12Z" fill="#E5C07A" mask="url(#path-3-outside-2_64_1296)"/>
</svg>
